<?xml version="1.0" encoding="utf-8"?>
<!-- Generator: Adobe Illustrator 22.0.0, SVG Export Plug-In . SVG Version: 6.00 Build 0)  -->
<svg version="1.1" xmlns="http://www.w3.org/2000/svg" xmlns:xlink="http://www.w3.org/1999/xlink" x="0px" y="0px"
	 viewBox="0 0 289 286.7" style="enable-background:new 0 0 289 286.7;" xml:space="preserve">
<path d="M173.1,143.3L274.6,41.9c7.9-7.9,7.9-20.7,0-28.6v0c-7.9-7.9-20.7-7.9-28.6,0L144.5,114.7L43.1,13.3
	c-7.9-7.9-20.7-7.9-28.6,0v0c-7.9,7.9-7.9,20.7,0,28.6l101.4,101.4L14.4,244.8c-7.9,7.9-7.9,20.7,0,28.6c7.9,7.9,20.7,7.9,28.6,0
	L144.5,172l101.4,101.4c7.9,7.9,20.7,7.9,28.6,0c7.9-7.9,7.9-20.7,0-28.6L173.1,143.3z"/>
</svg>
