<?xml version="1.0" encoding="utf-8"?>
<!-- Generator: Adobe Illustrator 22.0.0, SVG Export Plug-In . SVG Version: 6.00 Build 0)  -->
<svg version="1.1" xmlns="http://www.w3.org/2000/svg" xmlns:xlink="http://www.w3.org/1999/xlink" x="0px" y="0px"
	 viewBox="0 0 165.8 161.4" style="enable-background:new 0 0 165.8 161.4;" xml:space="preserve">
<g>
	<path d="M23.5,21.3c-21.8,21.8-21.8,57.3,0,79.1s57.3,21.8,79.1,0c21.8-21.8,21.8-57.3,0-79.1S45.3-0.6,23.5,21.3z M93.5,91.3
		c-16.8,16.8-44.1,16.8-60.9,0c-16.8-16.8-16.8-44.1,0-60.9c16.8-16.8,44.1-16.8,60.9,0C110.3,47.2,110.3,74.5,93.5,91.3z"/>
	<path d="M154.3,149.1l-3.1,3.1c-6.2,6.2-16.3,5.7-21.9-1l-30.9-37.3c3.4-2.3,6.6-4.9,9.6-7.9c3-3,5.6-6.2,7.9-9.6l37.3,30.9
		C160,132.8,160.5,142.9,154.3,149.1z"/>
</g>
</svg>
