<?xml version="1.0" encoding="utf-8"?>
<!-- Generator: Adobe Illustrator 22.0.0, SVG Export Plug-In . SVG Version: 6.00 Build 0)  -->
<svg version="1.1" id="Capa_1" xmlns="http://www.w3.org/2000/svg" xmlns:xlink="http://www.w3.org/1999/xlink" x="0px" y="0px"
	 viewBox="0 0 105 105" style="enable-background:new 0 0 105 105;" xml:space="preserve">
<g>
	<path d="M23.7,77.7c-1.2,0-2.3-0.2-3.5-0.6c-1.1-0.4-2.1-0.8-3.1-1.4c-4.4-6.7-7-14.7-7-23.2c0-5.4,1-10.6,2.9-15.4
		c0.2,1.8,0.7,3.5,1.4,5.1c1,2.1,2.3,4.2,3.8,6.1c1.5,2,3.2,3.9,5,5.8c1.8,1.9,3.4,3.7,5,5.4c1.5,1.7,2.8,3.4,3.8,5.1
		c1,1.6,1.5,3.2,1.5,4.8c0,2.8-0.9,4.8-2.8,6.2C29.1,77,26.7,77.7,23.7,77.7z"/>
	<path d="M73.6,84.5c2.7,0,5.2-0.3,7.4-0.9c-7.5,6.9-17.5,11.1-28.5,11.1c-11.2,0-21.4-4.4-28.9-11.5c0,0,0.1,0,0.2,0.1
		c2.3,0.8,4.8,1.2,7.6,1.2c3.2,0,6.1-0.4,8.7-1.2c2.6-0.8,4.8-2,6.7-3.6c1.8-1.6,3.3-3.5,4.3-5.8c0.2-0.4,0.3-0.9,0.5-1.3
		c1.4,1.5,3.1,3.4,3.9,4.2c1.2,1.3,2.8,2.5,4.5,3.7c1.8,1.2,3.8,2.1,6.1,2.9C68.3,84.1,70.8,84.5,73.6,84.5z"/>
	<path d="M56.6,73.7c-0.5-0.4-2.7-2.4-4.4-4c0.2-1.1,0.3-2.3,0.3-3.6c0-2.6-0.6-5-1.7-7.3c-1.2-2.3-2.6-4.4-4.3-6.4
		c-1.7-2-3.6-3.9-5.6-5.7c-2-1.8-3.9-3.5-5.6-5.2c-1.7-1.7-3.2-3.3-4.3-4.9c-1.2-1.6-1.7-3.1-1.7-4.7c0-1.1,0.2-2.1,0.5-3
		c0.4-0.8,0.9-1.5,1.5-2.1c0.6-0.5,1.4-0.9,2.2-1.2c0.8-0.2,1.7-0.4,2.7-0.4c1.9,0,3.5,0.3,4.7,1c1.2,0.7,1.8,1.6,1.8,2.7
		c0,0.4-0.2,0.7-0.6,0.9c-0.4,0.2-0.9,0.5-1.4,0.8c-0.5,0.3-1,0.7-1.4,1.2c-0.4,0.5-0.6,1.2-0.6,2c0,1.3,0.5,2.3,1.4,3.1
		c0.9,0.7,2.2,1.1,4,1.1c1.8,0,3.2-0.6,4.3-1.7c1-1.1,1.5-2.5,1.5-4c0-2-0.4-3.7-1.3-5.2c-0.9-1.5-2.1-2.7-3.7-3.7
		c-1.6-1-3.5-1.7-5.8-2.2c-2.2-0.5-4.7-0.7-7.4-0.7c-2.4,0-4.6,0.3-6.8,0.9c-0.4,0.1-0.8,0.2-1.1,0.4c7.6-7.1,17.8-11.5,29-11.5
		c10.9,0,20.8,4.1,28.3,10.9c-2.1-0.4-4.5-0.7-7.1-0.7c-2.3,0-4.6,0.3-6.8,0.9C64.7,22,62.7,23,61,24.2c-1.7,1.3-3.1,2.8-4.1,4.7
		c-1,1.9-1.5,4.1-1.5,6.7c0,2.3,0.5,4.5,1.5,6.6c1,2.1,2.3,4.2,3.8,6.1c1.5,2,3.2,3.9,5,5.8c1.8,1.9,3.4,3.7,5,5.4
		c1.5,1.7,2.8,3.4,3.8,5.1c1,1.6,1.5,3.2,1.5,4.8c0,2.8-0.9,4.8-2.8,6.2c-1.9,1.4-4.3,2.1-7.2,2.1c-1.2,0-2.3-0.2-3.5-0.6
		c-1.1-0.4-2.2-0.9-3.2-1.5C58.4,75,57.4,74.4,56.6,73.7z"/>
	<path d="M94.8,52.5c0,2.9-0.3,5.7-0.8,8.4c-0.2-0.7-0.5-1.4-0.9-2.1c-1.2-2.3-2.6-4.4-4.3-6.4c-1.7-2-3.6-3.9-5.6-5.7
		c-2-1.8-3.9-3.5-5.6-5.2c-1.7-1.7-3.2-3.3-4.3-4.9c-1.2-1.6-1.7-3.1-1.7-4.7c0-1.1,0.2-2.1,0.5-3c0.4-0.8,0.9-1.5,1.5-2.1
		c0.6-0.5,1.4-0.9,2.2-1.2c0.8-0.2,1.7-0.4,2.6-0.4c1.9,0,3.5,0.3,4.7,1c1.2,0.7,1.8,1.6,1.8,2.7c0,0.4-0.2,0.7-0.6,0.9
		c-0.4,0.2-0.9,0.5-1.4,0.8c-0.5,0.3-1,0.7-1.4,1.2c-0.4,0.5-0.6,1.2-0.6,2c0,1.3,0.5,2.3,1.4,3.1c0.9,0.7,2.2,1.1,4,1.1
		c1.8,0,3.2-0.6,4.2-1.7c0.3-0.3,0.5-0.7,0.7-1C93.5,40.6,94.8,46.4,94.8,52.5z"/>
	<path d="M52.5,0C23.5,0,0,23.5,0,52.5c0,29,23.5,52.5,52.5,52.5c29,0,52.5-23.5,52.5-52.5C105,23.5,81.5,0,52.5,0z M52.5,102.5
		c-27.6,0-50-22.4-50-50s22.4-50,50-50c27.6,0,50,22.4,50,50S80.1,102.5,52.5,102.5z"/>
</g>
</svg>
